# xmcd
#
# Track frame offsets:
#  151
#  12557
#  24910
#  36525
#  48294
#  60704
#  74456
#  86725
#  98572
#  111820
#  121196
#  134638
#  146974
#  159407
#  171326
#  183741
#  196237
#  208988
#  222205
#  233390
#
# Disc length: 3273 seconds
#
# Revision: 0
# Processed by: cddbd v1.4PL0 Copyright (c) Steve Scherf et al.
# Submitted via: AltoMP3_Maker 3.0
#
DISCID=290cc714
DTITLE=Hank Williams - Long Gone Daddy
DYEAR=1900
DGENRE=
TTITLE0=Love Sick Blues
TTITLE1=Half As Much
TTITLE2=My Bucket's Got A Hole In It
TTITLE3=Dear John
TTITLE4=Move It On Over
TTITLE5=Ramblin' Man
TTITLE6=Lost Highway
TTITLE7=Settin' The Woods On Fire
TTITLE8=Hey Good Lookin'
TTITLE9=Pan American
TTITLE10=You're Gonna Change
TTITLE11=Howlin' At The Moon
TTITLE12=Honky Tonkin'
TTITLE13=Why Should We Try Anymore
TTITLE14=Cold Cold Heart
TTITLE15=I Won't Be Home No More
TTITLE16=I Just Don't Like This Kind Of Living
TTITLE17=Wedding Bells
TTITLE18=Crazy Heart
TTITLE19=Blues Come Around
EXTD=
EXTT0=
EXTT1=
EXTT2=
EXTT3=
EXTT4=
EXTT5=
EXTT6=
EXTT7=
EXTT8=
EXTT9=
EXTT10=
EXTT11=
EXTT12=
EXTT13=
EXTT14=
EXTT15=
EXTT16=
EXTT17=
EXTT18=
EXTT19=
PLAYORDER=
